<?xml version="1.0" encoding="UTF-8"?>
<svg width="16px" height="16px" viewBox="0 0 16 16" version="1.1" xmlns="http://www.w3.org/2000/svg" xmlns:xlink="http://www.w3.org/1999/xlink">
    <!-- Generator: Sketch 57.1 (83088) - https://sketch.com -->
    <title>icon_double_2备份</title>
    <desc>Created with Sketch.</desc>
    <g id="icon_double_2备份" stroke="none" stroke-width="1" fill="none" fill-rule="evenodd">
        <polygon id="矩形备份" fill="#000000" points="1.77924491 7.4 3.30986362 10.1258966 2.2 10.8 0.6 8.07054063"></polygon>
        <polygon id="矩形" fill="#000000" points="3.37924491 10.8 5.8 14.9294594 4.62075509 15.6 2.2 11.4705406"></polygon>
        <path d="M2.2,7.16945336 L2.69075868,6.88826469 C2.76480859,6.38517571 2.93314293,5.91553843 3.19576167,5.47935283 C3.58968979,4.82507444 4.37109481,4.72171021 4.71370813,3.93293935 C4.94211701,3.4070921 5.23174578,2.69611232 5.58259444,1.8 C6.07411243,1.81796142 6.39357696,1.9536347 6.54098801,2.20701983 C6.68839907,2.46040497 6.59750502,3.11547688 6.26830588,4.17223556 L9.17709203,2.50559625 C9.95555045,2.05956504 10.4564188,2.03010011 10.679697,2.41720146 C10.9029752,2.80430281 10.6268285,3.22004209 9.85125679,3.66441931 L8.17260539,4.85738225 C7.93654042,4.71788029 7.71150792,4.64812931 7.49750788,4.64812931 C7.17650782,4.64812931 6.91310174,4.90645846 6.74106958,5.20530398 C6.49937267,5.62516758 6.26830588,6.2733691 6.08468293,6.64814298 C5.90105999,7.02291686 5.68708571,7.22031858 5.27388548,7.61994384 C4.86068525,8.01956909 4.49761828,8.27460438 4.26415697,8.66190185 C4.1085161,8.92010016 3.95379711,9.27030686 3.8,9.71252194 L2.2,7.16945336 Z" id="路径-4备份" fill="#000000"></path>
        <path d="M3.8,10.5694534 L4.29075868,10.2882647 C4.36480859,9.78517571 4.53314293,9.31553843 4.79576167,8.87935283 C5.18968979,8.22507444 5.97109481,8.12171021 6.31370813,7.33293935 C6.54211701,6.8070921 6.83174578,6.09611232 7.18259444,5.2 C7.67411243,5.21796142 7.99357696,5.3536347 8.14098801,5.60701983 C8.28839907,5.86040497 8.19750502,6.51547688 7.86830588,7.57223556 L10.777092,5.90559625 C11.5555504,5.45956504 12.0564188,5.43010011 12.279697,5.81720146 C12.5029752,6.20430281 12.2268285,6.62004209 11.4512568,7.06441931 C9.92756323,7.93744588 9.16571645,8.37395916 9.16571645,8.37395916 C9.16571645,8.37395916 9.30030518,8.60530398 9.30030518,8.60530398 C9.30030518,8.60530398 10.2402179,8.07839646 12.1200435,7.02458141 C12.8985019,6.5785502 13.4000919,6.54867178 13.6248135,6.93494613 C13.9618958,7.51435766 12.7852643,8.16803071 12.7852643,8.16803071 C12.7852643,8.16803071 9.9896956,9.79029846 9.9896956,9.79029846 C9.9896956,9.79029846 10.1374747,10.0443163 10.1380101,10.0452365 C10.1393347,10.0475133 12.4235504,8.73569664 12.4235504,8.73569664 C12.4250503,8.73827484 13.589073,8.06789032 13.9276553,8.64988006 C14.1469134,9.02676326 13.8677854,9.43737796 13.0902712,9.88172415 C11.5665776,10.7547507 10.8047308,11.191264 10.8047308,11.191264 C10.8047308,11.191264 10.9625034,11.4624596 10.9625034,11.4624596 C10.9635395,11.4642406 12.0888244,10.8365226 12.0813419,10.8236609 C12.0803561,10.8219665 13.2490798,10.1547007 13.5861119,10.7340257 C13.8108335,11.1203 13.533965,11.5364528 12.7555066,11.982484 L9.35204832,13.9325543 C8.98820259,14.0809864 8.36889333,14.190605 7.49412055,14.26141 C7.14926612,14.2893228 6.63559681,14.3188113 6.63559681,14.3188113 C6.63559681,14.3188113 6.47201059,14.4125409 6.14483814,14.6 L3.8,10.5694534 Z" id="路径-4" fill="#000000"></path>
        <path d="M8.42095237,5.08917584 C8.42095237,5.08917584 9.28721434,4.57896426 11.0197383,3.5585411 C11.7981967,3.1125099 12.2997867,3.08263147 12.5245083,3.46890583 C12.8615907,4.04831736 11.6849591,4.70199041 11.6849591,4.70199041 C11.6849591,4.70199041 10.6750179,5.35070793 8.65513537,6.64814298 C8.65513537,6.64814298 8.65513537,6.23389079 8.65513537,5.84788817 C8.65513537,5.46188555 8.42095237,5.08917584 8.42095237,5.08917584 Z" id="路径-4备份-2" fill="#000000"></path>
    </g>
</svg>