<?xml version="1.0" encoding="UTF-8"?>
<svg width="16px" height="16px" viewBox="0 0 16 16" version="1.1" xmlns="http://www.w3.org/2000/svg" xmlns:xlink="http://www.w3.org/1999/xlink">
    <!-- Generator: Sketch 57.1 (83088) - https://sketch.com -->
    <title>icon_gesture备份</title>
    <desc>Created with Sketch.</desc>
    <g id="icon_gesture备份" stroke="none" stroke-width="1" fill="none" fill-rule="evenodd">
        <polygon id="路径-5" fill="#000000" points="0.2 5.37278884 2.25603772 5.37278884 2.25603772 10.6160887 0.2 11.674297"></polygon>
        <path d="M2.8,10.6160887 C4.04443464,10.9287478 5.45549598,11.0850773 7.03318402,11.0850773 C9.39971608,11.0850773 10.2525663,10.4344258 11.5805483,9.65740013 C12.4658696,9.139383 13.8107601,7.93432328 15.6152196,6.04222096 C15.913369,5.13396504 15.7012242,4.79532904 14.9787851,5.02631296 C14.7305662,5.10567548 12.3822666,6.59216938 11.0087051,6.93146737 C9.95699112,7.19126241 7.32798255,7.19126241 7.03318402,7.19126241 C7.03318402,7.19126241 7.03318402,6.9996355 7.03318402,6.61638168 C9.68353143,6.6429198 11.0087051,6.55386087 11.0087051,6.3492049 C11.0087051,6.04222096 11.470673,5.37278884 9.95699112,5.37278884 C8.44330926,5.37278884 9.35386583,5.91667074 7.76033521,5.23093965 C6.1668046,4.54520855 5.15758055,4.05042345 3.97879028,4.71160614 C3.6925025,4.87218477 2.80988797,4.79895887 2.8,5.37278884 C2.8,5.37278884 2.8,7.12055546 2.8,10.6160887 Z" id="路径-6" fill="#000000"></path>
    </g>
</svg>