<?xml version="1.0" encoding="UTF-8"?>
<svg width="16px" height="16px" viewBox="0 0 16 16" version="1.1" xmlns="http://www.w3.org/2000/svg" xmlns:xlink="http://www.w3.org/1999/xlink">
    <!-- Generator: Sketch 57.1 (83088) - https://sketch.com -->
    <title>icon_single 备份</title>
    <desc>Created with Sketch.</desc>
    <g id="icon_single-备份" stroke="none" stroke-width="1" fill="none" fill-rule="evenodd">
        <rect id="矩形" fill="#000000" transform="translate(8.797423, 15.100000) rotate(-360.000000) translate(-8.797423, -15.100000) " x="5.59742259" y="14.2" width="6.4" height="1.8"></rect>
        <path d="M5.59742259,13.8033374 L5.59742259,13.0468289 C5.06076424,12.6228405 4.62601042,12.1123465 4.29316114,11.515347 C3.79388723,10.6198476 4.19505256,9.64691831 3.50484601,8.72028614 C3.04470831,8.10253137 2.40975964,7.28947847 1.6,6.28112744 C1.94900924,5.72494902 2.32030544,5.44685981 2.7138886,5.44685981 C3.10747176,5.44685981 3.80994311,5.99254574 4.82130265,7.08391762 L4.82130265,2.6 C4.82130265,1.4 5.12130265,0.80111247 5.72130265,0.803337409 C6.32130265,0.805562349 6.62130265,1.40444988 6.62130265,2.6 C6.62130265,4.94878608 6.62130265,6.12317911 6.62130265,6.12317911 C6.62130265,6.12317911 6.98065059,6.12317911 6.98065059,6.12317911 C6.98065059,6.12317911 6.99420128,4.68211941 7.02130265,1.8 C7.02130265,0.6 7.32130265,5.96855898e-13 7.92130265,5.96855898e-13 C8.82130265,5.96855898e-13 8.79742259,1.8 8.79742259,1.8 C8.79742259,1.8 8.82130265,6.12317911 8.82130265,6.12317911 C8.82130265,6.12317911 9.21586854,6.12317911 9.21729793,6.12317911 C9.22083456,6.12317911 9.21729793,2.6 9.21729793,2.6 C9.22130265,2.6 9.21729793,0.803337409 10.1213027,0.803337409 C10.7067154,0.803337409 10.9987554,1.40222494 10.9974226,2.6 C10.9974226,4.94878608 10.9974226,6.12317911 10.9974226,6.12317911 C10.9974226,6.12317911 11.4186707,6.12317911 11.4186707,6.12317911 C11.4214371,6.12317911 11.4412807,4.4 11.4213027,4.4 C11.4186707,4.4 11.4214371,2.6 12.3213027,2.6 C12.9213027,2.6 13.2213027,3.2 13.2213027,4.4 L13.2213027,9.64645878 C13.1513581,10.1669474 12.8656766,10.9566794 12.3642582,12.0156548 C12.1665882,12.4331259 11.8580712,13.0468289 11.8580712,13.0468289 C11.8580712,13.0468289 11.8580712,13.2989984 11.8580712,13.8033374 L5.59742259,13.8033374 Z" id="路径-4" fill="#000000" transform="translate(7.410651, 6.901669) rotate(-360.000000) translate(-7.410651, -6.901669) "></path>
    </g>
</svg>