<?xml version="1.0" encoding="UTF-8"?>
<svg width="16px" height="16px" viewBox="0 0 16 16" version="1.1" xmlns="http://www.w3.org/2000/svg" xmlns:xlink="http://www.w3.org/1999/xlink">
    <!-- Generator: Sketch 57.1 (83088) - https://sketch.com -->
    <title>icon_touch备份</title>
    <desc>Created with Sketch.</desc>
    <g id="icon_touch备份" stroke="none" stroke-width="1" fill="none" fill-rule="evenodd">
        <rect id="矩形" fill="#000000" transform="translate(8.797423, 15.100000) rotate(-360.000000) translate(-8.797423, -15.100000) " x="5.59742259" y="14.2" width="6.4" height="1.8"></rect>
        <circle id="椭圆形" stroke="#FF0000" stroke-width="0.8" cx="5.7" cy="2.1" r="1.7"></circle>
        <path d="M5.59742259,13.8033374 L5.59742259,13.0468289 C5.06076424,12.6228405 4.62601042,12.1123465 4.29316114,11.515347 C3.79388723,10.6198476 4.05808326,9.67519835 3.36787671,8.74856618 C2.90773901,8.13081141 2.42831092,7.40463565 1.92959244,6.57003892 C2.27860168,6.01386049 2.64989788,5.73577128 3.04348104,5.73577128 C3.43706421,5.73577128 4.02967141,6.34028122 4.82130265,7.54930111 L4.82130265,2.65798094 C4.82130265,1.74733681 5.12130265,1.2930981 5.72130265,1.29526481 C6.32130265,1.29754798 6.62130265,1.75178669 6.62130265,2.65798094 C6.62130265,5.60860539 6.62130265,7.08391762 6.62130265,7.08391762 C6.62130265,7.08391762 6.98065059,7.08391762 6.98065059,7.08391762 C6.98065059,7.08391762 6.99420128,6.68607248 7.02130265,5.8903822 C7.02130265,5.06136727 7.32130265,4.64685981 7.92130265,4.64685981 C8.82130265,4.64685981 8.79742259,5.8903822 8.79742259,5.8903822 C8.79742259,5.8903822 8.79742259,7.08391762 8.79742259,7.08391762 C8.77354254,7.08391762 9.21729793,7.08391762 9.21729793,7.08391762 C9.21939641,7.08697924 9.21729793,6.13350164 9.21729793,6.13350164 C9.21729793,6.13350164 9.21729793,5.03132859 10.1213027,5.03132859 C10.7067154,5.03132859 10.9987554,5.39871961 10.9974226,6.13350164 C10.9974226,6.76711229 10.9974226,7.08391762 10.9974226,7.08391762 C10.9974226,7.08391762 11.4186707,7.08391762 11.4186707,7.08391762 C11.4186707,7.08391762 11.4186707,7.08391762 11.4186707,6.57003892 C11.4186707,6.57003892 11.4186707,5.44685981 12.3213027,5.44685981 C12.9213027,5.44685981 13.2213027,5.81291071 13.2213027,6.54501253 L13.2213027,9.64645878 C13.1513581,10.1669474 12.8656766,10.9566794 12.3642582,12.0156548 C12.1665882,12.4331259 11.8580712,13.0468289 11.8580712,13.0468289 C11.8580712,13.0468289 11.8580712,13.2989984 11.8580712,13.8033374 L5.59742259,13.8033374 Z" id="路径-4" fill="#000000" transform="translate(7.575448, 7.549301) rotate(-360.000000) translate(-7.575448, -7.549301) "></path>
    </g>
</svg>