<?xml version="1.0" encoding="UTF-8"?>
<svg width="16px" height="16px" viewBox="0 0 16 16" version="1.1" xmlns="http://www.w3.org/2000/svg" xmlns:xlink="http://www.w3.org/1999/xlink">
    <!-- Generator: Sketch 57.1 (83088) - https://sketch.com -->
    <title>icon_double_2备份 3</title>
    <desc>Created with Sketch.</desc>
    <g id="icon_double_2备份-3" stroke="none" stroke-width="1" fill="none" fill-rule="evenodd">
        <rect id="矩形" fill-opacity="0.2" fill="#3B3B3B" x="-4.54747351e-13" y="0" width="16" height="16" rx="2.4"></rect>
        <polygon id="矩形备份" stroke="#D8D8D8" stroke-width="0.6" fill="#000000" points="3.27033525 7.6 4.4 9.68450917 3.58087124 10.2 2.4 8.11276637"></polygon>
        <polygon id="矩形" stroke="#D8D8D8" stroke-width="0.6" fill="#000000" points="4.51719049 10.2 6.4 13.2970945 5.48280951 13.8 3.6 10.7029055"></polygon>
        <path d="M3.6,7.47161211 L3.96715558,7.25838907 C4.0225552,6.87690085 4.14849264,6.52077878 4.3449679,6.19002285 C4.63968079,5.69388895 5.22428017,5.61550871 5.48060247,5.01739028 C5.651484,4.61864466 5.86816651,4.07951457 6.13064999,3.4 C6.49837365,3.41362 6.73737744,3.51649992 6.84766136,3.70863978 C6.95794529,3.90077963 6.88994393,4.39751525 6.64365729,5.19884662 L8.81983294,3.9350478 C9.40222785,3.59682603 9.77694685,3.57448301 9.94398995,3.86801877 C10.1110331,4.16155452 9.90443698,4.47680618 9.32420173,4.81377375 L8.06833755,5.71838769 C7.8917282,5.61260451 7.72337267,5.55971292 7.56327094,5.55971292 C7.32311836,5.55971292 7.12605406,5.75560178 6.99735014,5.98221387 C6.81652731,6.30059297 6.64365729,6.79211882 6.50628185,7.07630675 C6.36890641,7.36049469 6.20882396,7.51018279 5.89969285,7.81321532 C5.59056175,8.11624785 5.31893728,8.309639 5.14427582,8.60332346 C5.02783486,8.79911311 4.91208359,9.06467195 4.79702201,9.4 L3.6,7.47161211 Z" id="路径-4备份" stroke="#D8D8D8" stroke-width="0.6" fill="#000000"></path>
        <path d="M4.8,9.9985291 L5.16566333,9.78913328 C5.22083778,9.41449255 5.34626336,9.06476266 5.54194007,8.7399436 C5.83545514,8.25271501 6.41767849,8.17574165 6.672959,7.58835909 C6.843146,7.19677071 7.05894783,6.66731769 7.32036448,6 C7.68659358,6.01337552 7.92462597,6.11440882 8.03446166,6.30309988 C8.14429734,6.49179093 8.07657237,6.97961044 7.83128673,7.7665584 L9.99861759,6.52544401 C10.5786454,6.19329312 10.9518414,6.17135115 11.1182056,6.45961811 C11.2845698,6.74788507 11.0788134,7.05747815 10.5009364,7.38839736 C9.36563535,8.03852353 8.7979848,8.36358661 8.7979848,8.36358661 C8.7979848,8.36358661 8.8982666,8.53586467 8.8982666,8.53586467 C8.8982666,8.53586467 9.59859376,8.14348672 10.9992481,7.35873084 C11.5792759,7.02657994 11.9530096,7.00433005 12.1204492,7.29198116 C12.3716087,7.72345783 11.4949028,8.21023564 11.4949028,8.21023564 C11.4949028,8.21023564 9.41193005,9.41830736 9.41193005,9.41830736 C9.41193005,9.41830736 9.52203999,9.60746956 9.52243888,9.60815484 C9.52342583,9.60985036 11.2253905,8.63296558 11.2253905,8.63296558 C11.2265081,8.63488552 12.0938191,8.13566301 12.3460961,8.56905962 C12.5094649,8.84971732 12.3014871,9.15549422 11.7221628,9.48639032 C10.5868617,10.1365165 10.0192112,10.4615796 10.0192112,10.4615796 C10.0192112,10.4615796 10.1367672,10.6635337 10.1367672,10.6635337 C10.1375392,10.66486 10.9759868,10.1974104 10.9704116,10.1878326 C10.9696771,10.1865708 11.8404909,9.68967074 12.0916128,10.1210829 C12.2590524,10.4087341 12.0527583,10.7186351 11.4727304,11.050786 L8.93682032,12.502966 C8.66571958,12.6135005 8.20427346,12.6951314 7.55248198,12.7478585 C7.29553162,12.7686446 6.91279762,12.7906042 6.91279762,12.7906042 C6.91279762,12.7906042 6.79090985,12.8604028 6.5471343,13 L4.8,9.9985291 Z" id="路径-4" stroke="#D8D8D8" stroke-width="0.6" fill="#000000"></path>
        <path d="M8.4,5.82449348 C8.4,5.82449348 9.06567347,5.43977912 10.3970204,4.67035041 C10.9952218,4.33402992 11.3806654,4.31150072 11.5533513,4.60276281 C11.8123801,5.03965594 10.9082051,5.53254441 10.9082051,5.53254441 C10.9082051,5.53254441 10.1321222,6.02169627 8.57995643,7 C8.57995643,7 8.57995643,6.68764181 8.57995643,6.39658462 C8.57995643,6.10552743 8.4,5.82449348 8.4,5.82449348 Z" id="路径-4备份-2" stroke="#D8D8D8" stroke-width="0.6" fill="#000000"></path>
    </g>
</svg>