<?xml version="1.0" encoding="UTF-8"?>
<svg width="16px" height="16px" viewBox="0 0 16 16" version="1.1" xmlns="http://www.w3.org/2000/svg" xmlns:xlink="http://www.w3.org/1999/xlink">
    <!-- Generator: Sketch 57.1 (83088) - https://sketch.com -->
    <title>icon_gesture备份 3</title>
    <desc>Created with Sketch.</desc>
    <g id="icon_gesture备份-3" stroke="none" stroke-width="1" fill="none" fill-rule="evenodd">
        <rect id="矩形" fill-opacity="0.2" fill="#3B3B3B" x="-4.54747351e-13" y="0" width="16" height="16" rx="2.4"></rect>
        <polygon id="路径-5" stroke="#D8D8D8" stroke-width="0.6" fill="#000000" points="2.2 6 3.8 6 3.8 9.99393906 2.2 10.8"></polygon>
        <path d="M4,10.0492272 C4.94203481,10.2830757 6.01020573,10.4 7.20451276,10.4 C8.99597331,10.4 9.6415794,9.91335528 10.6468594,9.33219096 C11.3170461,8.94474807 12.3351257,8.04344233 13.7010984,6.62827372 C13.926797,5.94895778 13.7662037,5.69568023 13.2193186,5.86844107 C13.0314173,5.92779904 11.2537587,7.03959911 10.2139752,7.29337179 C9.41782952,7.48768146 7.42767472,7.48768146 7.20451276,7.48768146 C7.20451276,7.48768146 7.20451276,7.34435709 7.20451276,7.05770833 C9.21082103,7.0775571 10.2139752,7.01094686 10.2139752,6.8578776 C10.2139752,6.62827372 10.563684,6.12758234 9.41782952,6.12758234 C8.27197505,6.12758234 8.96126475,6.53437038 7.75496492,6.02148843 C6.54866508,5.50860649 5.78468428,5.13853964 4.89234214,5.63306099 C4.67562281,5.75316328 4.00748517,5.69839511 4,6.12758234 C4,6.12758234 4,7.4347973 4,10.0492272 Z" id="路径-6" stroke="#D8D8D8" stroke-width="0.6" fill="#000000"></path>
    </g>
</svg>