<?xml version="1.0" encoding="UTF-8"?>
<svg width="16px" height="16px" viewBox="0 0 16 16" version="1.1" xmlns="http://www.w3.org/2000/svg" xmlns:xlink="http://www.w3.org/1999/xlink">
    <!-- Generator: Sketch 57.1 (83088) - https://sketch.com -->
    <title>icon_double_1备份 3</title>
    <desc>Created with Sketch.</desc>
    <g id="icon_double_1备份-3" stroke="none" stroke-width="1" fill="none" fill-rule="evenodd">
        <rect id="矩形" fill-opacity="0.2" fill="#3B3B3B" x="-4.54747351e-13" y="0" width="16" height="16" rx="2.4"></rect>
        <path d="M8.84391821,12 L10.9644431,12 C10.9644431,11.5080855 10.9644431,11.2621282 10.9644431,11.2621282 C10.9644431,11.2621282 11.7286769,10.6250711 13.2571445,9.35095681 C13.7523815,8.71327553 14,8.09628992 14,7.5 C14,6.90371008 13.6987667,5.56381039 13.0963001,3.48030092 C12.9263936,3.16010031 12.759428,3 12.5954032,3 C12.4313784,3 12.3429125,3.16010031 12.3300054,3.48030092 L12.7138434,6.3910158 C12.8568537,6.69459949 12.8568537,6.94571779 12.7138434,7.1443707 C12.5708331,7.34302361 11.8691715,7.97745274 10.6088585,9.04765808 L10.3180957,8.70322927 L11.8701943,7.44235007 C12.2135554,7.09937775 12.2788925,6.80048016 12.0662058,6.54565731 C11.7471757,6.16342302 11.6065017,6.23637429 11.3487891,6.3910158 C11.1769807,6.49411014 10.3420238,7.15595733 8.84391821,8.37655737 C8.4146394,8.6760922 8.2,9.00089201 8.2,9.35095681 C8.2,9.70102161 8.4146394,10.3380788 8.84391821,11.2621282 L8.84391821,12 Z" id="路径-12" stroke="#D8D8D8" stroke-width="0.6" fill="#000000"></path>
        <path d="M2.64391821,12 L4.76444307,12 C4.76444307,11.5080855 4.76444307,11.2621282 4.76444307,11.2621282 C4.76444307,11.2621282 5.52867687,10.6250711 7.05714445,9.35095681 C7.55238148,8.71327553 7.8,8.09628992 7.8,7.5 C7.8,6.90371008 7.49876669,5.56381039 6.89630008,3.48030092 C6.72639362,3.16010031 6.55942799,3 6.39540319,3 C6.2313784,3 6.14291245,3.16010031 6.13000536,3.48030092 L6.5138434,6.3910158 C6.65685368,6.69459949 6.65685368,6.94571779 6.5138434,7.1443707 C6.37083312,7.34302361 5.66917148,7.97745274 4.4088585,9.04765808 L4.11809572,8.70322927 L5.67019431,7.44235007 C6.01355537,7.09937775 6.07889253,6.80048016 5.86620581,6.54565731 C5.54717572,6.16342302 5.40650173,6.23637429 5.14878913,6.3910158 C4.97698073,6.49411014 4.14202375,7.15595733 2.64391821,8.37655737 C2.2146394,8.6760922 2,9.00089201 2,9.35095681 C2,9.70102161 2.2146394,10.3380788 2.64391821,11.2621282 L2.64391821,12 Z" id="路径-12备份" stroke="#D8D8D8" stroke-width="0.6" fill="#000000" transform="translate(4.900000, 7.500000) scale(-1, 1) translate(-4.900000, -7.500000) "></path>
        <rect id="矩形" stroke="#D8D8D8" stroke-width="0.6" fill="#000000" x="8.6" y="12.2" width="2.6" height="1"></rect>
        <rect id="矩形备份" stroke="#D8D8D8" stroke-width="0.6" fill="#000000" x="4.8" y="12.2" width="2.6" height="1"></rect>
    </g>
</svg>