<?xml version="1.0" encoding="UTF-8"?>
<svg width="16px" height="16px" viewBox="0 0 16 16" version="1.1" xmlns="http://www.w3.org/2000/svg" xmlns:xlink="http://www.w3.org/1999/xlink">
    <!-- Generator: Sketch 57.1 (83088) - https://sketch.com -->
    <title>icon_single 备份 3</title>
    <desc>Created with Sketch.</desc>
    <g id="icon_single-备份-3" stroke="none" stroke-width="1" fill="none" fill-rule="evenodd">
        <rect id="矩形" fill="#D8D8D8" x="-4.54747351e-13" y="0" width="16" height="16" rx="2.4"></rect>
        <rect id="矩形" stroke="#D8D8D8" stroke-width="0.6" fill="#000000" transform="translate(8.400000, 13.300000) rotate(-360.000000) translate(-8.400000, -13.300000) " x="6" y="12.6" width="4.8" height="1.4"></rect>
        <path d="M6.02696865,12.4 L6.02696865,11.8300155 C5.6205948,11.5105653 5.29138613,11.1259382 5.03934264,10.6761342 C4.66127742,10.0014283 4.96505187,9.26838354 4.4424067,8.5702209 C4.09397659,8.10477914 3.61317436,7.49219177 3,6.73245879 C3.26428029,6.31341117 3.54543695,6.10388736 3.84346996,6.10388736 C4.14150297,6.10388736 4.67343541,6.51502951 5.43926728,7.3373138 L5.43926728,3.95894654 C5.43926728,3.05481737 5.66643631,2.60359096 6.12077436,2.60526732 C6.57511241,2.60694368 6.80228144,3.05817009 6.80228144,3.95894654 C6.80228144,5.72861821 6.80228144,6.61345404 6.80228144,6.61345404 C6.80228144,6.61345404 7.07439051,6.61345404 7.07439051,6.61345404 C7.07439051,6.61345404 7.0846515,5.52770061 7.10517347,3.35619376 C7.10517347,2.45206459 7.3323425,2 7.78668055,2 C8.46818762,2 8.45010493,3.35619376 8.45010493,3.35619376 C8.45010493,3.35619376 8.46818762,6.61345404 8.46818762,6.61345404 C8.46818762,6.61345404 8.76804716,6.61345404 8.76804716,6.61345404 C8.76804716,6.61345404 8.76804716,3.95894654 8.76804716,3.95894654 C8.77107966,3.95894654 8.76804716,2.60526732 9.45258674,2.60526732 C9.89587886,2.60526732 10.1170203,3.05649373 10.1160111,3.95894654 C10.1160111,5.72861821 10.1160111,6.61345404 10.1160111,6.61345404 C10.1160111,6.61345404 10.4369858,6.61345404 10.4369858,6.61345404 C10.4369858,6.61345404 10.4521138,5.31514029 10.4369858,5.31514029 C10.4349928,5.31514029 10.4370877,3.95894654 11.1184929,3.95894654 C11.572831,3.95894654 11.8,4.41101112 11.8,5.31514029 L11.8,9.26803731 C11.7470359,9.66019479 11.5307093,10.2552112 11.1510202,11.0530867 C11.0013385,11.3676265 10.7677201,11.8300155 10.7677201,11.8300155 C10.7677201,11.8300155 10.7677201,12.0200103 10.7677201,12.4 L6.02696865,12.4 Z" id="路径-4" stroke="#D8D8D8" stroke-width="0.6" fill="#000000" transform="translate(7.400000, 7.200000) rotate(-360.000000) translate(-7.400000, -7.200000) "></path>
    </g>
</svg>