<?xml version="1.0" encoding="UTF-8"?>
<svg width="16px" height="16px" viewBox="0 0 16 16" version="1.1" xmlns="http://www.w3.org/2000/svg" xmlns:xlink="http://www.w3.org/1999/xlink">
    <!-- Generator: Sketch 57.1 (83088) - https://sketch.com -->
    <title>icon_touch备份 3</title>
    <desc>Created with Sketch.</desc>
    <g id="icon_touch备份-3" stroke="none" stroke-width="1" fill="none" fill-rule="evenodd">
        <rect id="矩形" fill-opacity="0.2" fill="#3B3B3B" x="-4.54747351e-13" y="0" width="16" height="16" rx="2.4"></rect>
        <rect id="矩形" stroke="#D8D8D8" stroke-width="0.5" fill="#000000" transform="translate(8.400000, 13.300000) rotate(-360.000000) translate(-8.400000, -13.300000) " x="6" y="12.6" width="4.8" height="1.4"></rect>
        <circle id="椭圆形" stroke="#FF0000" stroke-width="0.6" cx="6.2" cy="3.2" r="1.6"></circle>
        <path d="M6.12853028,12.4 L6.12853028,11.8314728 C5.72930553,11.5128393 5.40588844,11.1291955 5.15827901,10.6805416 C4.78686487,10.0075607 4.98340256,9.29764295 4.46995199,8.60126529 C4.12765161,8.13701352 3.77100095,7.59128179 3.4,6.9640701 C3.65963096,6.54609386 3.93584139,6.33710574 4.22863128,6.33710574 C4.52142116,6.33710574 4.96226674,6.79140382 5.55116801,7.7 L5.55116801,4.02410115 C5.55116801,3.33973874 5.77434058,2.99837169 6.22068572,3 C6.66703086,3.00171584 6.89020343,3.34308289 6.89020343,4.02410115 C6.89020343,6.24153871 6.89020343,7.35025748 6.89020343,7.35025748 C6.89020343,7.35025748 7.15752545,7.35025748 7.15752545,7.35025748 C7.15752545,7.35025748 7.16760592,7.05127103 7.18776686,6.45329811 C7.18776686,5.83028123 7.41093943,5.51877279 7.85728458,5.51877279 C8.52680229,5.51877279 8.50903771,6.45329811 8.50903771,6.45329811 C8.50903771,6.45329811 8.50903771,7.35025748 8.50903771,7.35025748 C8.49127313,7.35025748 8.82138657,7.35025748 8.82138657,7.35025748 C8.82294765,7.35255833 8.82138657,6.63600593 8.82138657,6.63600593 C8.82138657,6.63600593 8.82138657,5.80770672 9.49388343,5.80770672 C9.92937698,5.80770672 10.146628,6.08380646 10.1456366,6.63600593 C10.1456366,7.11217363 10.1456366,7.35025748 10.1456366,7.35025748 C10.1456366,7.35025748 10.4590066,7.35025748 10.4590066,7.35025748 C10.4590066,7.35025748 10.4590066,7.35025748 10.4590066,6.9640701 C10.4590066,6.9640701 10.4590066,6.11998453 11.1304823,6.11998453 C11.5768274,6.11998453 11.8,6.39507715 11.8,6.9452624 L11.8,9.27604475 C11.7479676,9.6671996 11.5354467,10.2606948 11.1624373,11.0565303 C11.0153889,11.3702659 10.7858804,11.8314728 10.7858804,11.8314728 C10.7858804,11.8314728 10.7858804,12.0209818 10.7858804,12.4 L6.12853028,12.4 Z" id="路径-4" stroke="#D8D8D8" stroke-width="0.5" fill="#000000" transform="translate(7.600000, 7.700000) rotate(-360.000000) translate(-7.600000, -7.700000) "></path>
    </g>
</svg>